HIERARCHY
ROOT Hips
{
	OFFSET -0.001795 -0.223333 0.028219
	CHANNELS 6 Xposition Yposition Zposition Zrotation Yrotation Xrotation 
	JOINT LeftUpLeg
	{
		OFFSET 0.069520 -0.091406 -0.006815
		CHANNELS 3 Zrotation Yrotation Xrotation
		JOINT LeftLeg
		{
			OFFSET 0.034277 -0.375199 -0.004496
			CHANNELS 3 Zrotation Yrotation Xrotation
			JOINT LeftFoot
			{
				OFFSET -0.013596 -0.397961 -0.043693
				CHANNELS 3 Zrotation Yrotation Xrotation
				JOINT LeftToe
				{
					OFFSET 0.026358 -0.055791 0.119288
					CHANNELS 3 Zrotation Yrotation Xrotation
					End Site
					{
						OFFSET 0.000000 0.000000 0.000000
					}
				}
			}
		}
	}
	JOINT RightUpLeg
	{
		OFFSET -0.067670 -0.090522 -0.004320
		CHANNELS 3 Zrotation Yrotation Xrotation
		JOINT RightLeg
		{
			OFFSET -0.038290 -0.382569 -0.008850
			CHANNELS 3 Zrotation Yrotation Xrotation
			JOINT RightFoot
			{
				OFFSET 0.015774 -0.398415 -0.042312
				CHANNELS 3 Zrotation Yrotation Xrotation
				JOINT RightToe
				{
					OFFSET -0.025372 -0.048144 0.123348
					CHANNELS 3 Zrotation Yrotation Xrotation
					End Site
					{
						OFFSET 0.000000 0.000000 0.000000
					}
				}
			}
		}
	}
	JOINT Spine
	{
		OFFSET -0.002533 0.108963 -0.026696
		CHANNELS 3 Zrotation Yrotation Xrotation
		JOINT Spine1
		{
			OFFSET 0.005487 0.135180 0.001092
			CHANNELS 3 Zrotation Yrotation Xrotation
			JOINT Spine2
			{
				OFFSET 0.001457 0.052922 0.025425
				CHANNELS 3 Zrotation Yrotation Xrotation
				JOINT Neck
				{
					OFFSET -0.002778 0.213870 -0.042857
					CHANNELS 3 Zrotation Yrotation Xrotation
					JOINT Head
					{
						OFFSET 0.005152 0.064970 0.051349
						CHANNELS 3 Zrotation Yrotation Xrotation
						End Site
						{
							OFFSET 0.000000 0.000000 0.000000
						}
					}
				}
				JOINT LeftShoulder
				{
					OFFSET 0.078845 0.121749 -0.034090
					CHANNELS 3 Zrotation Yrotation Xrotation
					JOINT LeftArm
					{
						OFFSET 0.090977 0.030469 -0.008868
						CHANNELS 3 Zrotation Yrotation Xrotation
						JOINT LeftForeArm
						{
							OFFSET 0.259612 -0.012772 -0.027456
							CHANNELS 3 Zrotation Yrotation Xrotation
							JOINT LeftHand
							{
								OFFSET 0.249234 0.008986 -0.001171
								CHANNELS 3 Zrotation Yrotation Xrotation
								End Site
								{
									OFFSET 0.000000 0.000000 0.000000
								}
							}
						}
					}
				}
				JOINT RightShoulder
				{
					OFFSET -0.081759 0.118833 -0.038615
					CHANNELS 3 Zrotation Yrotation Xrotation
					JOINT RightArm
					{
						OFFSET -0.096012 0.032551 -0.009143
						CHANNELS 3 Zrotation Yrotation Xrotation
						JOINT RightForeArm
						{
							OFFSET -0.253742 -0.013329 -0.021401
							CHANNELS 3 Zrotation Yrotation Xrotation
							JOINT RightHand
							{
								OFFSET -0.255298 0.007772 -0.005559
								CHANNELS 3 Zrotation Yrotation Xrotation
								End Site
								{
									OFFSET 0.000000 0.000000 0.000000
								}
							}
						}
					}
				}
			}
		}
	}
}
MOTION
Frames: 6
Frame Time: 0.050000
0.000000 0.914323 0.000000 0.881103 11.724984 -12.023992 -7.448627 1.185587 9.388311 1.175583 -1.497689 19.091989 -2.554296 7.536913 27.861170 0.000000 0.000000 0.000000 -0.459287 0.892402 -10.262114 -5.543232 2.278515 57.154840 0.260353 -1.893503 6.517417 0.000000 0.000000 0.000000 1.362716 -0.568935 10.136501 4.244776 -2.856332 5.818945 -4.570486 -0.396041 1.667803 3.105045 -2.625656 0.653328 0.000000 0.000000 0.000000 -26.946017 -14.513434 3.730559 -39.617740 -13.174611 0.425994 1.951357 -29.523393 0.185026 0.000000 0.000000 0.000000 22.830389 6.422596 3.298554 51.703934 2.188615 -4.404262 -2.210684 30.417636 0.799671 0.000000 0.000000 0.000000 
0.006328 0.916630 -0.000121 0.863905 11.879215 -11.898354 -7.424649 1.617306 13.116624 1.133193 -0.892961 12.434940 -2.759676 6.654924 25.516578 0.000000 0.000000 0.000000 2.046666 1.629946 -15.030091 -9.116354 4.560034 54.964536 -0.873385 -4.227555 6.408469 0.000000 0.000000 0.000000 1.493655 -0.477440 8.733374 4.679228 -2.974496 4.862503 -4.847972 -2.226321 4.881002 1.900554 -1.327422 -1.593096 0.000000 0.000000 0.000000 -27.654757 -15.026887 4.844922 -38.831907 -15.315380 0.620084 4.979398 -29.885966 -0.472867 0.000000 0.000000 0.000000 21.521647 6.131846 2.741915 54.240565 0.722932 -5.402808 -3.383451 29.782622 0.478579 0.000000 0.000000 0.000000 
0.011841 0.914781 0.000081 0.212807 10.874667 -12.487909 -7.982994 1.963133 15.426783 2.535352 -0.913965 9.447202 -1.795937 7.112112 23.597468 0.000000 0.000000 0.000000 2.724850 2.175307 -19.646650 -7.726175 3.861564 49.982621 -0.859631 -2.983064 2.401760 0.000000 0.000000 0.000000 2.941904 -0.710855 10.758706 4.274932 -2.545887 3.434907 -4.663815 -4.279827 4.383331 -0.834803 0.748958 -0.852415 0.000000 0.000000 0.000000 -25.611962 -14.398282 5.359071 -39.891875 -17.613175 1.074845 2.977883 -29.942792 0.189144 0.000000 0.000000 0.000000 19.205524 5.228253 1.514901 54.258829 -2.846375 -6.751248 0.031711 28.177039 1.074398 0.000000 0.000000 0.000000 
0.016780 0.914508 0.002009 0.384872 11.494006 -13.433563 -8.753408 2.312702 18.006004 3.395298 -0.868614 7.064707 -2.062509 6.740049 23.309413 0.000000 0.000000 0.000000 3.677351 2.450655 -20.772324 -7.053085 3.104144 40.633514 -0.331945 -2.509382 5.092746 0.000000 0.000000 0.000000 3.269269 -0.708213 10.555585 4.979355 -3.152832 4.852174 -5.500703 -5.885850 3.251477 -2.147813 1.746350 -0.268170 0.000000 0.000000 0.000000 -25.563871 -13.007059 4.887706 -41.199589 -17.387762 1.022067 3.023598 -32.343889 0.245780 0.000000 0.000000 0.000000 19.169919 4.796039 0.914936 53.458107 -6.936175 -8.232981 0.714951 29.202405 1.185344 0.000000 0.000000 0.000000 
0.021416 0.909409 0.005696 1.109209 11.253547 -13.336325 -10.243006 2.711464 19.334443 4.142179 -0.840407 5.337278 -1.435450 6.881202 21.448265 0.000000 0.000000 0.000000 4.768418 2.674676 -20.756409 -6.067551 2.469888 31.188445 -0.114826 -2.356489 6.445931 0.000000 0.000000 0.000000 3.807463 -0.695203 10.115705 4.480304 -2.968996 5.638220 -6.698145 -6.897523 2.330105 -2.029215 1.638281 -0.385535 0.000000 0.000000 0.000000 -24.702752 -14.036062 5.770525 -42.453051 -17.525571 1.118284 3.916086 -32.777142 0.041413 0.000000 0.000000 0.000000 19.263652 4.113876 0.272849 53.251525 -9.520566 -9.154963 0.787990 27.885858 1.075028 0.000000 0.000000 0.000000 
0.025506 0.904571 0.010866 1.622800 12.939452 -13.877530 -11.069349 2.998110 21.520956 4.925408 -0.797229 3.592664 -1.788057 5.901071 19.387550 0.000000 0.000000 0.000000 4.203067 2.326395 -18.775694 -5.305086 1.920823 26.923986 0.584897 0.667068 1.979360 0.000000 0.000000 0.000000 3.572953 -0.683755 10.094917 4.626223 -3.060833 5.445516 -7.135133 -8.528038 2.454700 -2.191676 1.682795 1.377845 0.000000 0.000000 0.000000 -24.982865 -14.011783 6.038084 -43.085953 -18.579222 1.430001 3.535477 -32.722682 0.203320 0.000000 0.000000 0.000000 20.125507 3.644160 -0.243527 52.419827 -11.769929 -9.922571 0.320082 27.649301 0.916153 0.000000 0.000000 0.000000 
